<svg width="3138" height="2500" viewBox="0 0 3138 2500" fill="none" xmlns="http://www.w3.org/2000/svg">
<g clip-path="url(#clip0_304_100)">
<rect x="992.721" y="325.05" width="1438.25" height="1907.63" fill="white"/>
<path fill-rule="evenodd" clip-rule="evenodd" d="M651.679 0.299072C472.655 0.299072 340.185 156.993 346.117 326.923C351.81 490.18 344.414 701.621 291.185 874.052C237.767 1046.97 147.489 1156.54 0 1170.61V1329.39C147.489 1343.49 237.767 1453.01 291.179 1625.95C344.414 1798.38 351.804 2009.82 346.111 2173.08C340.179 2342.98 472.649 2499.7 651.704 2499.7H2486.11C2665.13 2499.7 2797.58 2343.01 2791.65 2173.08C2785.95 2009.82 2793.35 1798.38 2846.58 1625.95C2900 1453.01 2990.05 1343.45 3137.55 1329.39V1170.61C2990.06 1156.51 2900 1046.99 2846.58 874.052C2793.35 701.646 2785.95 490.18 2791.65 326.923C2797.58 157.017 2665.13 0.299072 2486.11 0.299072H651.654H651.679ZM2127.15 1538.84C2127.15 1772.83 1952.62 1914.74 1662.98 1914.74H1169.93C1155.83 1914.74 1142.3 1909.14 1132.33 1899.16C1122.36 1889.19 1116.75 1875.66 1116.75 1861.56V638.447C1116.75 624.343 1122.36 610.817 1132.33 600.844C1142.3 590.871 1155.83 585.268 1169.93 585.268H1660.17C1901.69 585.268 2060.19 716.089 2060.19 916.942C2060.19 1057.92 1953.56 1184.12 1817.72 1206.23V1213.59C2002.64 1233.87 2127.15 1361.95 2127.15 1538.84ZM1609.22 753.844H1328.09V1150.94H1564.87C1747.92 1150.94 1848.84 1077.23 1848.84 945.486C1848.83 822.019 1762.05 753.844 1609.22 753.844ZM1328.09 1308.5V1746.11H1619.56C1810.15 1746.11 1911.09 1669.64 1911.09 1525.92C1911.09 1382.21 1807.31 1308.47 1607.31 1308.47H1328.09V1308.5Z" fill="#7952B3"/>
</g>
<defs>
<clipPath id="clip0_304_100">
<rect width="3137.55" height="2500" fill="white"/>
</clipPath>
</defs>
</svg>
