<svg width="2200" height="2500" viewBox="0 0 2200 2500" fill="none" xmlns="http://www.w3.org/2000/svg">
<path d="M200.248 2250.17L0 0H2200L1999.5 2249.8L1098.63 2500L200.248 2250.17Z" fill="#1572B6"/>
<path d="M1100 2309L1828.29 2106.71L1999.56 184H1100V2309Z" fill="#33A9DC"/>
<path d="M1100 998.99H1464.4L1489.49 716.637H1100V441H1790.56L1783.97 515.009L1716.28 1275H1100V998.99Z" fill="white"/>
<path d="M1101.82 1715.77H1100.58L793.603 1632.84L773.959 1413H497.444L536.112 1845.83L1100.83 2003H1102.44V1715.77H1101.82Z" fill="#EBEBEB"/>
<path d="M1441.24 1263.12L1408.11 1632.44L1101.22 1715.46V2003L1665.23 1846.16L1669.32 1799.48L1717.22 1263H1441.24V1263.12Z" fill="white"/>
<path d="M1101.22 441V716.843H435.533L429.814 654.881L417.256 515.031L410.667 441H1101.22ZM1100.23 999.157V1275H796.726L791.38 1213.04L778.822 1073.19L772.232 999.157H1100.1H1100.23Z" fill="#EBEBEB"/>
</svg>
