<svg width="2500" height="2500" viewBox="0 0 2500 2500" fill="none" xmlns="http://www.w3.org/2000/svg">
<g clip-path="url(#clip0)">
<path d="M2494.15 570.393C2495.07 573.706 2495.55 577.121 2495.55 580.553V1113.91C2495.55 1120.75 2493.69 1127.48 2490.14 1133.4C2486.59 1139.32 2481.49 1144.24 2475.35 1147.64L2012.52 1405.37V1916.22C2012.52 1930.12 2004.88 1942.96 1992.41 1949.96L1026.29 2487.88C1024.07 2489.09 1021.66 2489.87 1019.25 2490.7C1018.35 2490.99 1017.49 2491.52 1016.54 2491.77C1009.78 2493.49 1002.68 2493.49 995.93 2491.77C994.824 2491.48 993.819 2490.89 992.764 2490.5C990.552 2489.73 988.24 2489.05 986.129 2487.88L20.2041 1949.96C14.0678 1946.55 8.96923 1941.63 5.42216 1935.71C1.87508 1929.79 0.00486201 1923.06 0 1916.22L0 316.161C0 312.661 0.502589 309.258 1.40725 305.953C1.7088 304.835 2.41243 303.814 2.8145 302.696C3.56838 300.654 4.272 298.564 5.3777 296.668C6.13158 295.404 7.23728 294.384 8.14194 293.217C9.29789 291.661 10.3533 290.057 11.7103 288.696C12.8663 287.578 14.374 286.752 15.6808 285.779C17.1383 284.613 18.445 283.349 20.1036 282.425H20.1538L503.142 13.4641C509.257 10.0604 516.189 8.26904 523.245 8.26904C530.301 8.26904 537.233 10.0604 543.349 13.4641L1026.34 282.425H1026.44C1028.05 283.398 1029.4 284.613 1030.86 285.731C1032.17 286.703 1033.62 287.578 1034.78 288.647C1036.19 290.057 1037.19 291.661 1038.4 293.217C1039.25 294.384 1040.41 295.404 1041.11 296.668C1042.27 298.613 1042.92 300.654 1043.73 302.696C1044.13 303.814 1044.83 304.835 1045.13 306.001C1046.06 309.314 1046.53 312.73 1046.54 316.161V1315.54L1449.01 1091.4V580.504C1449.01 577.102 1449.52 573.65 1450.42 570.393C1450.77 569.227 1451.43 568.206 1451.83 567.088C1452.63 565.046 1453.34 562.956 1454.44 561.06C1455.2 559.796 1456.3 558.775 1457.16 557.609C1458.36 556.053 1459.37 554.449 1460.77 553.088C1461.93 551.97 1463.39 551.144 1464.69 550.171C1466.2 549.005 1467.51 547.741 1469.12 546.817H1469.17L1952.21 277.856C1958.32 274.448 1965.25 272.653 1972.31 272.653C1979.37 272.653 1986.3 274.448 1992.41 277.856L2475.4 546.817C2477.11 547.789 2478.42 549.005 2479.92 550.123C2481.18 551.095 2482.64 551.97 2483.79 553.039C2485.2 554.449 2486.21 556.053 2487.41 557.609C2488.32 558.775 2489.42 559.796 2490.13 561.06C2491.28 562.956 2491.94 565.046 2492.74 567.088C2493.19 568.206 2493.85 569.227 2494.15 570.393V570.393ZM2415.04 1091.4V647.878L2246.02 741.988L2012.52 872.021V1315.54L2415.09 1091.4H2415.04ZM1932.05 1893.71V1449.9L1702.37 1576.77L1046.49 1938.82V2386.82L1932.05 1893.71ZM80.5147 383.486V1893.71L965.976 2386.77V1938.87L503.393 1685.66L503.242 1685.56L503.041 1685.47C501.483 1684.59 500.176 1683.33 498.719 1682.26C497.462 1681.29 496.005 1680.51 494.899 1679.44L494.799 1679.29C493.492 1678.08 492.587 1676.57 491.482 1675.21C490.476 1673.9 489.27 1672.78 488.466 1671.42L488.416 1671.27C487.511 1669.81 486.958 1668.06 486.305 1666.41C485.652 1664.95 484.797 1663.59 484.395 1662.04V1661.99C483.892 1660.14 483.792 1658.2 483.591 1656.3C483.39 1654.84 482.988 1653.38 482.988 1651.93V607.629L249.535 477.547L80.5147 383.535V383.486ZM523.295 92.1157L120.873 316.161L523.195 540.206L925.567 316.112L523.195 92.1157H523.295ZM732.573 1490.34L966.026 1360.36V383.486L797.005 477.596L563.503 607.629V1584.5L732.573 1490.34ZM1972.31 356.508L1569.94 580.553L1972.31 804.598L2374.63 580.504L1972.31 356.508ZM1932.05 872.021L1698.55 741.988L1529.53 647.878V1091.4L1762.98 1221.38L1932.05 1315.54V872.021ZM1006.18 1871.5L1596.37 1545.61L1891.39 1382.77L1489.32 1158.87L1026.39 1416.65L604.464 1651.59L1006.18 1871.5Z" fill="#FF2D20"/>
</g>
<defs>
<clipPath id="clip0">
<rect width="2500" height="2500" fill="white"/>
</clipPath>
</defs>
</svg>
