<svg width="2500" height="2500" viewBox="0 0 2500 2500" fill="none" xmlns="http://www.w3.org/2000/svg">
<g clip-path="url(#clip0_308_2)">
<path d="M1402.52 2083.33H2331.88C2361.4 2083.34 2390.39 2075.64 2415.96 2061.01C2441.52 2046.38 2462.75 2025.34 2477.5 2000C2492.25 1974.66 2500.01 1945.91 2500 1916.66C2499.99 1887.4 2492.2 1858.67 2477.42 1833.34L1853.3 761.914C1838.54 736.581 1817.32 715.542 1791.77 700.914C1766.21 686.289 1737.22 678.586 1707.7 678.586C1678.19 678.586 1649.2 686.289 1623.64 700.914C1598.08 715.542 1576.86 736.581 1562.11 761.914L1402.52 1036.05L1090.5 499.981C1075.74 474.65 1054.51 453.614 1028.94 438.989C1003.38 424.367 974.381 416.667 944.864 416.667C915.347 416.667 886.35 424.367 860.786 438.989C835.219 453.614 813.989 474.65 799.225 499.981L22.5736 1833.34C7.79842 1858.67 0.0128593 1887.4 1.59161e-05 1916.66C-0.0128275 1945.91 7.74747 1974.66 22.5004 2000C37.2533 2025.34 58.4786 2046.38 84.0417 2061.01C109.604 2075.64 138.604 2083.34 168.122 2083.33H751.494C982.633 2083.33 1153.09 1982.71 1270.38 1786.39L1555.14 1297.63L1707.66 1036.05L2165.41 1821.76H1555.14L1402.52 2083.33ZM741.983 1821.49L334.864 1821.4L945.136 773.85L1249.64 1297.63L1045.76 1647.71C967.869 1775.08 879.381 1821.49 741.983 1821.49Z" fill="#00DC82"/>
</g>
<defs>
<clipPath id="clip0_308_2">
<rect width="2500" height="2500" fill="white"/>
</clipPath>
</defs>
</svg>
