<svg width="4200" height="2625" viewBox="0 0 4200 2625" fill="none" xmlns="http://www.w3.org/2000/svg">
<path d="M2100 2609.69C3259.8 2609.69 4200 2025.49 4200 1304.85C4200 584.2 3259.8 0 2100 0C940.202 0 0 584.2 0 1304.85C0 2025.49 940.202 2609.69 2100 2609.69Z" fill="#8993BE"/>
<path fill-rule="evenodd" clip-rule="evenodd" d="M589.723 2077.45L819.87 686.753H1352.04C1582.17 703.928 1697.24 841.267 1697.24 1081.65C1697.24 1493.71 1423.96 1734.08 1179.43 1716.9H920.555L863.018 2077.45H589.723ZM978.075 1459.38L1050 944.296H1236.98C1337.67 944.296 1409.58 995.8 1409.58 1098.81C1395.2 1390.7 1280.13 1442.21 1150.69 1459.38H978.091H978.075ZM1643.78 1716.9L1873.91 326.222H2147.2L2089.66 686.753H2348.55C2578.7 703.928 2665 841.267 2636.24 1012.97L2535.55 1716.9H2247.89L2348.57 1081.65C2362.94 995.8 2362.94 944.296 2262.27 944.296H2046.52L1917.07 1716.9H1643.78V1716.9ZM2517.13 2077.45L2747.26 686.753H3279.45C3509.59 703.928 3624.67 841.267 3624.67 1081.65C3624.67 1493.71 3351.37 1734.08 3106.85 1716.9H2847.94L2790.41 2077.45H2517.13V2077.45ZM2905.46 1459.38L2977.39 944.296H3164.39C3265.07 944.296 3336.98 995.8 3336.98 1098.81C3322.61 1390.7 3207.54 1442.21 3078.09 1459.38H2905.48H2905.46Z" fill="#232531"/>
</svg>
