<svg width="4000" height="2500" viewBox="0 0 4000 2500" fill="none" xmlns="http://www.w3.org/2000/svg">
<path d="M2000 3.32446C1466.67 3.32446 1133.33 280.369 1000 834.441C1200 557.397 1433.33 453.507 1700 522.773C1852.14 562.283 1960.89 676.968 2081.27 803.891C2277.36 1010.68 2504.3 1250 3000 1250C3533.33 1250 3866.67 972.956 4000 418.883C3800 695.927 3566.67 799.817 3300 730.552C3147.86 691.041 3039.11 576.357 2918.73 449.433C2722.64 242.644 2495.7 3.32446 2000 3.32446ZM1000 1250C466.672 1250 133.328 1527.04 0 2081.12C200 1804.07 433.328 1700.18 700 1769.45C852.141 1808.96 960.891 1923.64 1081.27 2050.57C1277.36 2257.36 1504.3 2496.68 2000 2496.68C2533.33 2496.68 2866.67 2219.63 3000 1665.56C2800 1942.6 2566.67 2046.49 2300 1977.23C2147.86 1937.72 2039.11 1823.03 1918.73 1696.11C1722.64 1489.32 1495.7 1250 1000 1250Z" fill="url(#paint0_linear)"/>
<defs>
<linearGradient id="paint0_linear" x1="-111.12" y1="801.197" x2="3408.05" y2="2754.32" gradientUnits="userSpaceOnUse">
<stop stop-color="#2298BD"/>
<stop offset="1" stop-color="#0ED7B5"/>
</linearGradient>
</defs>
</svg>
