<?xml version="1.0" standalone="no"?>
<!DOCTYPE svg PUBLIC "-//W3C//DTD SVG 20010904//EN"
 "http://www.w3.org/TR/2001/REC-SVG-20010904/DTD/svg10.dtd">
<svg version="1.0" xmlns="http://www.w3.org/2000/svg"
 width="558.000000pt" height="558.000000pt" viewBox="0 0 558.000000 558.000000"
 preserveAspectRatio="xMidYMid meet">
<metadata>
Created by potrace 1.11, written by Peter Selinger 2001-2013
</metadata>
<g transform="translate(0.000000,558.000000) scale(0.100000,-0.100000)"
fill="#000000" stroke="none">
<path d="M2588 5575 c-1 -2 -34 -6 -73 -9 -38 -3 -81 -8 -95 -10 -14 -3 -59
-10 -100 -16 -114 -18 -271 -57 -415 -105 -496 -164 -928 -462 -1274 -879 -81
-97 -251 -344 -251 -364 0 -6 -4 -12 -8 -14 -9 -3 -109 -200 -154 -303 -59
-136 -144 -414 -164 -540 -3 -16 -7 -37 -10 -45 -3 -8 -7 -37 -10 -65 -3 -27
-7 -55 -9 -62 -11 -32 -20 -198 -20 -363 0 -212 8 -334 30 -450 3 -14 8 -43
11 -65 14 -101 90 -376 129 -470 70 -170 95 -226 147 -324 132 -252 294 -470
507 -681 218 -216 434 -372 706 -510 216 -110 401 -176 660 -236 42 -10 180
-34 224 -39 25 -3 66 -8 91 -12 61 -9 446 -10 545 -1 118 10 304 44 439 78
162 42 330 103 476 173 47 22 87 41 90 42 5 1 51 27 180 102 104 61 243 162
364 263 116 98 357 356 429 460 178 257 231 352 357 645 42 98 103 307 134
465 44 224 51 300 50 560 -1 258 -8 328 -59 595 -28 144 -122 417 -201 582
-30 62 -54 117 -54 122 0 5 -4 11 -8 13 -4 2 -25 35 -47 73 -63 115 -216 331
-304 430 -151 170 -379 372 -544 484 -283 191 -659 354 -936 407 -14 3 -27 7
-31 9 -7 4 -163 32 -230 40 -25 3 -61 8 -80 11 -38 6 -486 14 -492 9z"/>
</g>
</svg>
