<svg width="24" height="33" viewBox="0 0 24 33" fill="none" xmlns="http://www.w3.org/2000/svg">
<g clip-path="url(#clip0_401_2)">
<path d="M7.73912 25.0757C7.73912 25.0757 6.5018 25.7952 8.61971 26.0387C11.1856 26.3314 12.4968 26.2895 15.3244 25.7542C15.3244 25.7542 16.0679 26.2204 17.106 26.6242C10.7674 29.3407 2.76043 26.4667 7.73912 25.0757" fill="#5382A1"/>
<path d="M6.96535 21.5308C6.96535 21.5308 5.57757 22.5581 7.69707 22.7773C10.4379 23.06 12.6024 23.0832 16.348 22.3619C16.348 22.3619 16.866 22.8871 17.6806 23.1744C10.0168 25.4154 1.48078 23.3511 6.96535 21.5308" fill="#5382A1"/>
<path d="M13.495 15.5168C15.0569 17.3149 13.0847 18.933 13.0847 18.933C13.0847 18.933 17.0504 16.8858 15.2291 14.3221C13.5281 11.9315 12.2236 10.7435 19.2855 6.64795C19.2855 6.64795 8.2007 9.41639 13.495 15.5167" fill="#E76F00"/>
<path d="M21.8782 27.6977C21.8782 27.6977 22.7939 28.4521 20.8698 29.0358C17.2111 30.1442 5.64178 30.4789 2.42785 29.0799C1.27257 28.5774 3.43913 27.8799 4.1206 27.7335C4.83131 27.5794 5.23753 27.6082 5.23753 27.6082C3.95269 26.703 -3.06712 29.3854 1.67185 30.1535C14.5956 32.2493 25.2305 29.2098 21.8782 27.6977Z" fill="#5382A1"/>
<path d="M8.33403 17.8573C8.33403 17.8573 2.44926 19.2551 6.25016 19.7626C7.85497 19.9775 11.0542 19.9289 14.0342 19.6792C16.4697 19.4739 18.9151 19.037 18.9151 19.037C18.9151 19.037 18.0564 19.4048 17.4351 19.829C11.4591 21.4007 -0.0854594 20.6695 3.23807 19.0618C6.04879 17.7032 8.33413 17.8573 8.33413 17.8573" fill="#5382A1"/>
<path d="M18.8916 23.7586C24.9666 20.6018 22.1578 17.5682 20.1973 17.977C19.7167 18.0769 19.5025 18.1636 19.5025 18.1636C19.5025 18.1636 19.6809 17.8842 20.0216 17.7632C23.9 16.3996 26.8828 21.7848 18.7695 23.9176C18.7695 23.9177 18.8636 23.8337 18.8916 23.7586" fill="#5382A1"/>
<path d="M15.2289 0.0347617C15.2289 0.0347617 18.5934 3.40039 12.038 8.57548C6.78132 12.7269 10.8393 15.0939 12.0358 17.7983C8.96738 15.0299 6.71551 12.5928 8.22629 10.3246C10.4436 6.99486 16.5864 5.38057 15.2289 0.034668" fill="#E76F00"/>
<path d="M8.93123 32.3124C14.7624 32.6858 23.7167 32.1053 23.9288 29.3462C23.9288 29.3462 23.5212 30.3923 19.1097 31.2229C14.1327 32.1594 7.9943 32.0501 4.35352 31.4498C4.35361 31.4498 5.09883 32.0667 8.93133 32.3124" fill="#5382A1"/>
</g>
<defs>
<clipPath id="clip0_401_2">
<rect width="24" height="32.4375" fill="white"/>
</clipPath>
</defs>
</svg>
