<svg width="25" height="21" viewBox="0 0 25 21" fill="none" xmlns="http://www.w3.org/2000/svg">
<path d="M12.5013 0.00292969C12.0515 0.00292968 11.6061 0.0915235 11.1906 0.263653C10.775 0.435783 10.3974 0.688077 10.0794 1.00613C9.76132 1.32418 9.50902 1.70177 9.3369 2.11733C9.16477 2.53288 9.07617 2.97828 9.07617 3.42807C9.07617 3.87787 9.16477 4.32326 9.3369 4.73882C9.50902 5.15437 9.76132 5.53196 10.0794 5.85001C10.3974 6.16807 10.775 6.42036 11.1906 6.59249C11.6061 6.76462 12.0515 6.85321 12.5013 6.85321C13.4097 6.85321 14.2809 6.49235 14.9233 5.85001C15.5656 5.20767 15.9265 4.33648 15.9265 3.42807C15.9265 2.51967 15.5656 1.64847 14.9233 1.00613C14.2809 0.363792 13.4097 0.00292969 12.5013 0.00292969V0.00292969Z" fill="#FF7A00"/>
<path d="M20.214 1.71387C19.532 1.71387 18.878 1.98478 18.3957 2.46702C17.9135 2.94926 17.6426 3.60331 17.6426 4.2853C17.6426 4.96728 17.9135 5.62133 18.3957 6.10357C18.878 6.58581 19.532 6.85672 20.214 6.85672C20.896 6.85672 21.55 6.58581 22.0323 6.10357C22.5145 5.62133 22.7854 4.96728 22.7854 4.2853C22.7854 3.60331 22.5145 2.94926 22.0323 2.46702C21.55 1.98478 20.896 1.71387 20.214 1.71387V1.71387Z" fill="#FF7A00"/>
<path d="M4.78627 1.71387C4.10429 1.71387 3.45023 1.98478 2.968 2.46702C2.48576 2.94926 2.21484 3.60331 2.21484 4.2853C2.21484 4.96728 2.48576 5.62133 2.968 6.10357C3.45023 6.58581 4.10429 6.85672 4.78627 6.85672C5.46826 6.85672 6.12231 6.58581 6.60455 6.10357C7.08678 5.62133 7.3577 4.96728 7.3577 4.2853C7.3577 3.60331 7.08678 2.94926 6.60455 2.46702C6.12231 1.98478 5.46826 1.71387 4.78627 1.71387Z" fill="#FF7A00"/>
<path d="M7.35742 10.2736C7.36059 9.821 7.5426 9.38804 7.86375 9.06914C8.1849 8.75024 8.61912 8.57128 9.07171 8.57129H15.9289C16.3835 8.57129 16.8195 8.7519 17.141 9.07339C17.4625 9.39488 17.6431 9.83092 17.6431 10.2856V15.4284C17.643 15.968 17.5586 16.5041 17.3929 17.0176C17.0133 18.1811 16.2313 19.1711 15.1874 19.81C14.1436 20.4488 12.9061 20.6946 11.6974 20.5032C10.4886 20.3118 9.38762 19.6957 8.59219 18.7656C7.79676 17.8355 7.35897 16.6523 7.35742 15.4284V10.2856V10.2736Z" fill="#FF7A00"/>
<path d="M5.64286 10.2856C5.64286 9.65986 5.80914 9.07529 6.10229 8.57129H2.21429C1.75963 8.57129 1.32359 8.7519 1.0021 9.07339C0.680612 9.39488 0.5 9.83092 0.5 10.2856V14.5713C0.499767 15.273 0.671816 15.9639 1.00104 16.5836C1.33026 17.2032 1.80659 17.7325 2.38819 18.1251C2.96979 18.5176 3.63886 18.7613 4.33667 18.8348C5.03447 18.9084 5.73965 18.8094 6.39029 18.5467C5.89688 17.5808 5.64066 16.5113 5.64286 15.4267V10.2856Z" fill="#FF7A00"/>
<path d="M19.3568 10.2856V15.4284C19.3568 16.5513 19.0877 17.6107 18.6094 18.5467C19.26 18.8094 19.9652 18.9084 20.663 18.8348C21.3608 18.7613 22.0299 18.5176 22.6115 18.1251C23.1931 17.7325 23.6694 17.2032 23.9986 16.5836C24.3278 15.9639 24.4999 15.273 24.4997 14.5713V10.2856C24.4997 9.83092 24.319 9.39488 23.9976 9.07339C23.6761 8.7519 23.24 8.57129 22.7854 8.57129H18.8974C19.1888 9.07529 19.3568 9.65986 19.3568 10.2856Z" fill="#FF7A00"/>
</svg>
