<svg width="2000" height="2000" viewBox="0 0 2000 2000" fill="none" xmlns="http://www.w3.org/2000/svg">
<path d="M649.033 1461.43L956.53 1769.12L1802.58 922.878H1187.39L649.033 1461.43Z" fill="#39CEFD"/>
<path d="M1187.39 0.000976562H1802.58L495.188 1307.59L187.498 999.897L1187.39 0.000976562Z" fill="#39CEFD"/>
<path d="M956.53 1769.12L1187.39 1999.79H1802.58L1264.22 1461.43L956.53 1769.12Z" fill="#03569B"/>
<path d="M1412.87 1611.04L1264.22 1461.43L956.53 1769.12L1412.87 1611.04Z" fill="url(#paint0_linear_601_32)"/>
<path d="M648.998 1461.33L956.696 1153.63L1264.41 1461.33L956.696 1769.03L648.998 1461.33Z" fill="#16B9FD"/>
<path d="M1802.58 922.878L1264.22 1461.43L1802.58 1999.99H1187.39L648.84 1461.43L1187.39 922.878H1802.58ZM1187.39 0.000976562L187.498 999.897L495.188 1307.59L1802.58 0.000976562H1187.39V0.000976562Z" fill="url(#paint1_radial_601_32)"/>
<defs>
<linearGradient id="paint0_linear_601_32" x1="1046.32" y1="1828.5" x2="1275.48" y2="1599.34" gradientUnits="userSpaceOnUse">
<stop stop-color="#1A237E" stop-opacity="0.4"/>
<stop offset="1" stop-color="#1A237E" stop-opacity="0"/>
</linearGradient>
<radialGradient id="paint1_radial_601_32" cx="0" cy="0" r="1" gradientUnits="userSpaceOnUse" gradientTransform="translate(232.871 136.314) scale(2446.74)">
<stop stop-color="white" stop-opacity="0.1"/>
<stop offset="1" stop-color="white" stop-opacity="0"/>
</radialGradient>
</defs>
</svg>
