<svg width="2500" height="2500" viewBox="0 0 2500 2500" fill="none" xmlns="http://www.w3.org/2000/svg">
<g clip-path="url(#clip0)">
<path d="M167.504 601.97C-53.5901 919.939 -26.2464 1333.53 142.816 1672.28C146.722 1680.41 151.019 1688.38 155.16 1696.34L162.972 1711.58C164.535 1714.55 166.254 1717.44 167.894 1720.33C170.785 1725.8 173.754 1730.8 176.722 1736.11L192.894 1763.77L202.113 1778.92L220.863 1808.22L228.832 1820.56C237.66 1833.69 246.644 1846.81 255.941 1859.63L261.254 1866.81C269.307 1877.88 277.537 1888.82 285.941 1899.63L295.316 1911.5L318.129 1939.63L326.879 1950.09C337.269 1962.36 347.972 1974.55 358.676 1986.42C359.769 1987.59 360.238 1987.99 360.551 1988.45C371.164 1999.97 381.947 2011.32 392.894 2022.52L403.285 2032.99L429.066 2058.3L439.613 2068.45C451.215 2079.4 463.014 2090.13 475.004 2100.64L513.754 2133.45L527.035 2144.08L553.832 2165.02L568.129 2175.95L598.207 2197.52L612.269 2207.44C621.879 2214.08 631.644 2220.41 641.488 2226.74L654.144 2235.17C669.224 2244.75 684.46 2254.07 699.847 2263.14L712.504 2270.95L746.879 2290.17C753.129 2293.53 759.535 2296.74 765.863 2299.94L790.394 2312.67L796.097 2315.41L806.254 2320.25L845.16 2338.22L853.363 2341.89C868.381 2348.43 883.514 2354.71 898.754 2360.72L909.691 2365.09L952.504 2380.95L957.972 2382.83C973.78 2388.27 989.667 2393.48 1005.63 2398.45L1017.19 2401.89C1032.82 2406.81 1049.69 2412.83 1066.41 2415.8C2136.25 2610.88 2446.88 1772.83 2446.88 1772.83C2185.94 2112.83 1722.66 2202.52 1282.82 2102.67C1266.18 2098.92 1250 2093.77 1233.83 2088.92L1221.64 2085.25C1205.83 2080.39 1190.1 2075.26 1174.46 2069.86L1167.97 2067.52C1154.05 2062.58 1140.19 2057.44 1126.41 2052.13L1114.69 2047.44C1099.59 2041.5 1084.61 2035.25 1069.77 2028.69L1060.78 2024.78L1022.89 2007.13L1011.96 2001.89C1002.11 1997.2 992.425 1991.97 982.66 1986.27L963.129 1976.11C951.254 1969.86 939.691 1963.14 927.972 1956.42L916.097 1949.78C900.717 1940.7 885.481 1931.38 870.394 1921.81C866.254 1919.16 862.191 1916.34 858.05 1913.61L825.551 1891.97C821.957 1889.63 817.738 1886.97 815.082 1884.63L784.3 1862.36L770.629 1852.05L742.894 1830.33L730.55 1820.41L696.019 1791.27C694.764 1790.17 693.46 1789.13 692.113 1788.14L655.785 1755.09L645.629 1745.25L619.691 1719.47L609.535 1709.31C598.597 1698.14 587.972 1686.89 578.285 1675.41C577.738 1674.86 577.191 1674.31 576.722 1673.69C565.661 1661.55 554.826 1649.2 544.222 1636.66L536.41 1626.5L512.972 1597.59L505.16 1586.89L478.129 1550.95C232.972 1218.77 145.316 759.548 340.16 382.985L167.504 601.97ZM854.222 334.157C694.222 564.392 702.894 873.22 827.66 1116.03C848.566 1156.96 872.214 1196.42 898.441 1234.16C922.425 1268.53 948.988 1309.39 980.785 1336.97C992.347 1349.7 1004.38 1361.97 1016.72 1374.24L1026.1 1383.61C1038.04 1395.25 1050.26 1406.61 1062.74 1417.67C1063.28 1418.06 1063.68 1418.61 1064.3 1419C1078.52 1431.5 1092.89 1442.44 1107.5 1454.78L1117.19 1462.36C1131.85 1473.66 1146.8 1484.58 1162.03 1495.09L1163.36 1496.03C1170.08 1500.72 1176.96 1505.02 1183.83 1509.55C1187.11 1511.66 1190.24 1513.92 1193.52 1515.95C1204.44 1522.96 1215.51 1529.73 1226.72 1536.27L1231.41 1539L1260.78 1554.63C1264.22 1556.58 1268.6 1558.22 1271.25 1560.09L1291.8 1570.72C1292.82 1571.27 1293.91 1571.66 1294.93 1572.13C1309.02 1579.14 1323.29 1585.79 1337.74 1592.05L1347.11 1595.95C1358.75 1600.89 1370.47 1605.63 1382.27 1610.17L1397.27 1615.64C1407.97 1619.53 1418.72 1623.25 1429.53 1626.81L1444.14 1631.5C1459.53 1636.19 1475.39 1642.44 1490.78 1645.02C2316.8 1781.89 2507.5 1145.02 2507.5 1145.02C2335.63 1392.67 2002.82 1510.64 1647.5 1418.45C1631.8 1414.32 1616.2 1409.82 1600.71 1404.94C1596.02 1403.53 1591.33 1401.97 1586.64 1400.41L1553.83 1389.16L1538.21 1383.69C1526.41 1379.14 1514.69 1374.4 1503.05 1369.47L1493.52 1365.56C1478.99 1359.25 1464.61 1352.58 1450.39 1345.56L1428.75 1334.63L1416.25 1328.22C1407.06 1323.23 1397.95 1318.1 1388.91 1312.83L1382.35 1309.16C1371.17 1302.61 1360.13 1295.84 1349.22 1288.84C1345.86 1286.74 1342.58 1284.39 1339.22 1282.2L1317.74 1267.99C1302.61 1257.5 1287.76 1246.61 1273.21 1235.33L1263.05 1227.52C1106.8 1104.7 984.3 936.892 925.707 746.735C864.3 549.47 877.504 327.985 983.91 148.298L854.222 334.157ZM1431.72 134.001C1337.5 273.454 1328.13 445.173 1393.6 598.454C1462.58 761.188 1603.99 888.767 1769.07 950.017L1789.53 957.829L1798.6 960.642L1828.05 968.454C2284.14 1056.58 2407.74 734.392 2440.78 686.97C2332.43 842.985 2150.32 880.407 1926.88 826.188C1909.22 821.892 1889.85 815.485 1872.82 809.47C1850.96 801.722 1829.52 792.83 1808.6 782.829C1768.89 763.73 1731.17 740.726 1696.02 714.157C1496.1 562.517 1371.88 272.36 1502.35 36.7354" fill="#0868AC"/>
</g>
<defs>
<clipPath id="clip0">
<rect width="2500" height="2500" fill="white"/>
</clipPath>
</defs>
</svg>
