<svg width="147" height="57" viewBox="0 0 147 57" fill="none" xmlns="http://www.w3.org/2000/svg">
<g clip-path="url(#clip0)">
<path d="M19 13.92C21.96 13.92 24.5467 14.5067 26.76 15.68C28.9733 16.8533 30.68 18.5067 31.88 20.64C33.1067 22.7467 33.72 25.1867 33.72 27.96C33.72 30.7067 33.1067 33.1467 31.88 35.28C30.68 37.4133 28.96 39.0667 26.72 40.24C24.5067 41.4133 21.9333 42 19 42H8.48V13.92H19ZM18.56 36.08C21.1467 36.08 23.16 35.3733 24.6 33.96C26.04 32.5467 26.76 30.5467 26.76 27.96C26.76 25.3733 26.04 23.36 24.6 21.92C23.16 20.48 21.1467 19.76 18.56 19.76H15.32V36.08H18.56ZM44.3825 19.4V25.08H53.5425V30.36H44.3825V36.52H54.7425V42H37.5425V13.92H54.7425V19.4H44.3825ZM97.8231 13.92L90.5031 42H82.2231L77.7431 23.52L73.1031 42H64.8231L57.7031 13.92H65.0231L69.0631 34.36L74.0631 13.92H81.5831L86.3831 34.36L90.4631 13.92H97.8231ZM118.733 37.04H108.253L106.573 42H99.4134L109.573 13.92H117.493L127.653 42H120.413L118.733 37.04ZM116.973 31.76L113.493 21.48L110.053 31.76H116.973Z" fill="#383838"/>
<path d="M133.946 42.32C132.746 42.32 131.759 41.9733 130.986 41.28C130.239 40.56 129.866 39.68 129.866 38.64C129.866 37.5733 130.239 36.68 130.986 35.96C131.759 35.24 132.746 34.88 133.946 34.88C135.119 34.88 136.079 35.24 136.826 35.96C137.599 36.68 137.986 37.5733 137.986 38.64C137.986 39.68 137.599 40.56 136.826 41.28C136.079 41.9733 135.119 42.32 133.946 42.32Z" fill="#FF7A00"/>
<path opacity="0.86" d="M90 47H140V53H90V47Z" fill="#FFA553"/>
</g>
<defs>
<clipPath id="clip0">
<rect width="147" height="57" fill="white"/>
</clipPath>
</defs>
</svg>
