<svg width="4000" height="2500" viewBox="0 0 4000 2500" fill="none" xmlns="http://www.w3.org/2000/svg">
<path d="M2000 2485.42C3104.57 2485.42 4000 1929.04 4000 1242.71C4000 556.381 3104.57 0 2000 0C895.43 0 0 556.381 0 1242.71C0 1929.04 895.43 2485.42 2000 2485.42Z" fill="#8993BE"/>
<path fill-rule="evenodd" clip-rule="evenodd" d="M561.641 1978.53L780.828 654.051H1287.66C1506.83 670.408 1616.42 801.207 1616.42 1030.15C1616.42 1422.58 1356.16 1651.5 1123.27 1635.15H876.719L821.922 1978.53H561.641ZM931.5 1389.89L1000 899.329H1178.08C1273.97 899.329 1342.45 948.381 1342.45 1046.48C1328.77 1324.48 1219.17 1373.53 1095.89 1389.89H931.516H931.5ZM1565.5 1635.15L1784.67 310.687H2044.95L1990.16 654.051H2236.72C2455.91 670.408 2538.09 801.207 2510.7 964.738L2414.81 1635.15H2140.84L2236.73 1030.15C2250.42 948.381 2250.42 899.329 2154.55 899.329H1949.06L1825.78 1635.15H1565.5V1635.15ZM2397.27 1978.53L2616.44 654.051H3123.28C3342.47 670.408 3452.06 801.207 3452.06 1030.15C3452.06 1422.58 3191.78 1651.5 2958.91 1635.15H2712.33L2657.53 1978.53H2397.27V1978.53ZM2767.11 1389.89L2835.61 899.329H3013.7C3109.59 899.329 3178.08 948.381 3178.08 1046.48C3164.39 1324.48 3054.8 1373.53 2931.52 1389.89H2767.13H2767.11Z" fill="#232531"/>
</svg>
